<?xml version="1.0" standalone="no"?>
<!DOCTYPE svg PUBLIC "-//W3C//DTD SVG 20010904//EN"
 "http://www.w3.org/TR/2001/REC-SVG-20010904/DTD/svg10.dtd">
<svg version="1.0" xmlns="http://www.w3.org/2000/svg"
 width="512.000000pt" height="512.000000pt" viewBox="0 0 512.000000 512.000000"
 preserveAspectRatio="xMidYMid meet">

<g transform="translate(0.000000,512.000000) scale(0.100000,-0.100000)"
fill="#000000" stroke="none">
<path d="M2320 5109 c-491 -47 -981 -246 -1366 -557 -599 -482 -954 -1224
-954 -1992 0 -577 204 -1155 568 -1606 482 -599 1224 -954 1992 -954 577 0
1155 204 1606 568 599 482 954 1224 954 1992 0 577 -204 1155 -568 1606 -433
538 -1071 879 -1767 944 -125 11 -340 11 -465 -1z m-1081 -1260 c19 -4 37 -6
41 -4 5 3 27 -2 50 -10 30 -10 66 -13 123 -10 45 3 138 7 206 10 68 2 125 6
128 8 2 2 29 -2 60 -9 53 -12 165 -8 318 11 77 10 275 13 280 5 5 -9 234 -5
295 5 30 5 43 1 83 -30 l47 -36 0 -67 c0 -76 6 -67 -131 -198 -84 -80 -183
-164 -193 -164 -4 0 -19 -13 -35 -29 -15 -16 -38 -32 -50 -36 -11 -3 -21 -10
-21 -15 0 -16 -53 -61 -102 -86 -27 -13 -48 -29 -48 -34 0 -6 -5 -10 -10 -10
-19 0 -120 -81 -120 -95 0 -3 18 -5 41 -5 22 0 48 -4 58 -9 10 -6 47 -12 82
-14 35 -2 74 -8 86 -15 12 -7 33 -12 47 -12 15 0 34 -4 44 -9 24 -13 89 -41
95 -41 2 0 22 -17 44 -37 22 -21 69 -66 106 -101 37 -34 67 -71 67 -81 0 -10
11 -35 25 -55 14 -20 25 -41 25 -46 0 -5 11 -35 24 -67 56 -135 72 -269 45
-366 -9 -35 -28 -127 -48 -237 -11 -56 -54 -177 -70 -193 -6 -6 -11 -17 -11
-25 0 -8 -13 -30 -30 -49 -16 -18 -30 -40 -30 -48 0 -8 -5 -15 -11 -15 -5 0
-17 -16 -25 -35 -8 -19 -27 -41 -44 -50 -16 -8 -34 -23 -40 -33 -24 -41 -42
-55 -109 -82 -39 -16 -86 -40 -104 -54 -51 -39 -99 -62 -142 -70 -22 -4 -48
-15 -57 -23 -19 -17 -120 -26 -286 -24 -115 1 -188 14 -214 38 -9 8 -43 18
-75 22 -32 4 -72 15 -90 24 -18 9 -38 17 -46 17 -7 0 -23 11 -35 25 -12 14
-28 25 -35 25 -7 0 -20 16 -27 36 -8 20 -33 53 -56 73 -23 20 -53 59 -67 87
-14 28 -33 54 -40 57 -21 8 -48 95 -53 172 -5 59 -3 67 20 90 28 28 42 30 100
13 50 -15 81 -43 90 -82 9 -39 90 -172 129 -214 100 -106 87 -99 267 -143 110
-27 270 -30 317 -6 15 8 46 18 68 22 49 8 152 65 220 121 71 58 145 130 145
142 0 6 6 17 13 24 33 34 87 186 87 247 0 26 11 68 29 116 19 48 32 114 31
160 -1 66 -47 214 -75 241 -12 12 -32 46 -44 76 -18 45 -33 62 -81 96 -32 23
-70 42 -83 42 -14 0 -41 7 -60 15 -20 8 -58 15 -84 15 -27 0 -64 4 -83 10 -19
5 -82 11 -140 12 -91 1 -111 -1 -147 -20 -23 -12 -54 -22 -69 -22 -18 0 -39
-12 -63 -38 -38 -40 -99 -88 -141 -111 -67 -37 -77 -40 -112 -35 -29 5 -39 13
-56 48 -45 92 -36 117 73 205 37 30 86 78 110 108 25 30 68 71 97 93 53 39
129 99 196 156 61 51 163 124 176 124 6 0 40 27 76 60 36 33 71 60 78 60 6 0
12 4 12 9 0 5 20 19 45 31 54 26 111 88 96 103 -13 13 -51 13 -389 7 -35 -1
-85 -5 -112 -9 -28 -4 -74 -4 -102 1 -57 9 -250 11 -333 3 -64 -6 -56 -7 -154
1 l-84 6 8 -38 c4 -22 9 -83 11 -136 1 -54 5 -102 8 -106 8 -14 -17 -75 -39
-94 -45 -38 -78 -32 -169 33 -4 4 -10 74 -12 155 -4 116 -9 163 -25 212 -33
99 -18 157 52 205 35 25 61 26 138 6z m2602 -71 c34 -19 40 -28 50 -77 18 -83
14 -691 -5 -896 -7 -73 -8 -95 -7 -360 0 -256 -1 -208 6 -410 3 -93 5 -183 3
-200 -6 -70 -1 -188 11 -276 1 -4 18 -10 39 -13 93 -16 166 -70 158 -116 -3
-14 -8 -39 -11 -55 -11 -51 -56 -74 -145 -74 -180 0 -206 -4 -377 -48 -18 -4
-33 5 -67 40 -67 70 -73 147 -14 182 17 10 51 20 76 22 70 6 72 9 72 152 0 69
3 164 6 211 3 47 5 103 4 125 -4 149 8 968 15 1030 10 87 21 326 16 368 -2 19
-68 -33 -135 -106 -66 -71 -76 -78 -112 -80 -31 -1 -51 7 -86 32 -52 38 -60
54 -44 99 11 32 90 122 106 122 5 0 36 33 69 73 64 76 161 177 171 177 4 0 13
11 20 25 7 14 18 25 23 25 5 0 22 11 39 25 36 31 69 32 119 3z"/>
</g>
</svg>
